<?xml version="1.0" standalone="no"?><!DOCTYPE svg PUBLIC "-//W3C//DTD SVG 1.1//EN" "http://www.w3.org/Graphics/SVG/1.1/DTD/svg11.dtd"><svg t="1696406577400" class="icon" viewBox="0 0 1024 1024" version="1.1" xmlns="http://www.w3.org/2000/svg" p-id="1066" xmlns:xlink="http://www.w3.org/1999/xlink" width="200" height="200"><path d="M894.204612 126.594756c-20.388677 11.697119-41.008551 23.011317-61.657326 34.260492-31.760675 17.296419-63.759772 34.166568-95.3037 51.838681-4.49389 2.514266-7.268253 1.14876-10.46166-0.317895-23.712133-10.87348-47.294217-22.021505-70.970225-32.960009-41.008551-18.943697-82.060452-37.800694-123.097903-56.686592-7.860695-3.619677-15.121723-2.521491-22.845144 1.372732-57.784777 29.11636-115.764626 57.835351-173.520504 87.016735-5.895521 2.97666-10.266588 3.193407-16.205458 0.187848-57.055062-28.856264-114.35577-57.242909-171.403607-86.099173-11.913866-6.025569-22.231028-7.037056-31.262157 4.385516v231.355855c-12.874778 6.487963-21.710835 19.81791-21.710834 35.221404 0 21.775859 17.650439 39.426298 39.426297 39.426297s39.426298-17.650439 39.426298-39.426297c0-16.241583-9.825869-30.192871-23.856631-36.225666 0.01445-64.164367 0.0289-128.335958 0.036124-192.500324 0-0.520193 0.137273-1.040386 0.38292-2.738239 22.050405 11.017978 43.327745 21.67471 64.619536 32.295318 33.379053 16.646177 66.86648 33.075607 100.086586 50.025231 9.117828 4.652838 17.130246 4.49389 26.197499-0.072249 58.572291-29.49928 117.325205-58.637315 175.919172-88.093246 4.219344-2.124122 7.318827-1.8568 11.465921 0.079474 51.015042 23.856631 102.131234 47.496515 153.22575 71.172522 11.94999 5.534276 23.972229 10.916829 35.886095 16.523354 10.338837 4.86236 19.413315 5.61375 30.387944-0.939237 25.279937-15.092823 51.737533-28.198798 77.624361-42.280134 20.439252-11.119126 40.72678-22.505574 61.108233-33.725849 2.008523-1.10541 4.175994-1.914599 7.268252-3.316231v8.171366c0 187.110547-0.021675 374.213868 0.115599 561.324415 0.007225 5.303079-1.495555 7.990743-6.35069 10.606158-39.63582 21.30624-79.054892 43.017074-118.52454 64.619535-10.663957 5.837722-21.154517 12.029464-32.056896 17.390343-2.904411 1.430531-7.593373 1.625603-10.505009 0.296221-45.57469-20.879971-90.975983-42.135636-136.449525-63.232354-18.510202-8.59041-37.172128-16.834025-55.610081-25.576158-8.785482-4.161544-16.761776-4.385516-25.735105 0.137273-58.796263 29.672678-117.802049 58.919087-176.641662 88.497841-3.959247 1.986848-6.697485 1.726752-10.533909-0.202297-55.32831-27.765304-110.743318-55.349984-166.180002-82.891316-3.836424-1.907374-5.873846-3.952022-5.866621-8.836057 0.050574-55.429458 0.065024-110.858917 0.079474-166.28115 14.052437-6.025569 23.89998-19.984083 23.89998-36.24734 0-21.775859-17.650439-39.426298-39.426298-39.426298s-39.426298 17.650439-39.426297 39.426298c0 15.403494 8.836057 28.733441 21.710834 35.221403v190.484577L315.005786 863.383174c8.995005 4.50834 17.108571 4.638388 26.378122-0.036125 58.528942-29.54263 117.325205-58.572291 175.897496-88.020997 4.746761-2.384218 8.026868-2.218045 12.788079 0.021675 44.86665 21.103943 89.906697 41.853865 134.917845 62.661586 18.510202 8.554286 37.244377 16.667852 55.566732 25.612283 9.796969 4.782886 18.575226 4.197669 27.852002-0.968137 27.100612-15.100048 54.331273-29.968899 81.540259-44.873875 29.463156-16.133209 59.02746-32.085796 88.360568-48.442977 3.865323-2.160246 6.646911-6.263991 9.934242-9.464623V131.19702c-10.013716-13.380521-17.462591-14.110236-34.036519-4.602264z" p-id="1067" fill="#2c2c2c"></path><path d="M716.688736 671.850986c0.007225 28.40832 18.040584 47.756611 50.415376 50.003556 29.809951-1.936274 48.970395-22.267152 48.204555-50.314226-0.852539-31.218807-21.920357-49.216042-49.512263-48.796998-30.171196 0.455169-49.114893 20.562075-49.107668 49.107668zM476.706347 314.666215c-28.935738-0.989812-52.329975 21.761409-51.882031 50.191404 0.419044 26.370897 21.378489 47.099145 46.7379 48.479101 29.007987 1.582254 53.789405-23.199165 51.325713-49.114893 2.26862-26.898315-22.368301-48.739198-46.181582-49.555612zM246.398103 704.760421c0.158948 29.441481 22.960743 49.721785 49.461689 48.775323 27.295685 1.50278 49.779584-22.035955 49.440013-49.40389-0.346795-28.003725-21.400164-48.457427-48.291254-48.703073-33.899246-0.310671-50.740496 24.593571-50.610448 49.33164zM264.518161 324.455959c-2.572066-2.752688-6.675811-4.067621-10.085965-6.040019-14.370333 1.141535-23.011317 14.305309-15.967036 25.836254 4.327717 7.08763 10.627833 13.221573 16.942398 18.763074 5.288629 4.638388 13.48167 3.410154 19.225468-1.965173 5.209155-4.869585 8.778258-11.133576 4.616713-17.968335-4.089295-6.71916-9.334575-12.853103-14.731578-18.625801zM550.414811 663.137753c-6.675811-3.121158-13.944063-4.977958-17.672114-6.263991-12.34736 0.021675-19.131544 5.028533-20.90887 12.737504-1.668953 7.232128 1.84235 15.35292 9.168403 18.748624 6.025569 2.796038 12.470183 5.071882 18.972596 6.36514 9.479073 1.8857 17.780487-3.215082 20.52595-11.465921 2.60819-7.802896-0.982587-15.858663-10.085965-20.121356zM320.453363 410.71408c13.958513 3.764175 23.936105-0.693591 25.265487-17.527615-1.054836-1.950724-2.246945-7.217678-5.519826-9.529648-6.162843-4.342167-13.329947-7.485-20.439252-10.201563-9.255101-3.532978-16.508904-0.671916-20.301978 6.943132-4.768436 9.580222-0.708041 19.059295 5.888296 22.910168 4.84791 2.824937 9.789744 5.96777 15.107273 7.405526zM771.424604 338.61677c13.79234-0.180623 21.746959-11.126351 17.527616-21.537437-4.609488-11.379223-14.58708-16.494454-25.82903-19.723986-6.784184-1.950724-12.513533 0.122823-16.263257 5.317529-4.226568 5.859397-6.415714 13.712867-1.538905 19.565038 7.282703 8.727683 17.079671 14.594305 26.103576 16.378856zM829.982446 355.732566c-4.941834-5.902746-13.250473-6.33624-20.063557-2.196371-5.765473 3.504078-10.230463 9.731945-7.961843 16.422205 2.752688 8.128016 7.463325 15.735839 12.195637 23.004093 4.017046 6.162843 10.541134 7.224903 17.426466 5.086332 8.041317-2.499817 11.624869-8.128016 11.104677-16.48723l-12.70138-25.829029zM609.976914 680.643694c-12.975926-0.01445-17.823837 3.229532-20.374227 12.137837-2.124122 7.427201 0.303446 14.081337 9.175627 18.380154 6.70471 3.243982 14.507606 4.566139 21.978156 5.758248 7.029831 1.127085 12.513533-2.543166 15.793639-8.677109 3.453504-6.451839 3.33068-13.243248-1.690628-18.806423-7.203229-7.983518-17.419242-7.817345-24.882567-8.792707zM706.422149 277.060593c-7.434426-2.557616-15.403494-4.241018-23.242514-4.768436-10.714532-0.715265-16.169334 5.425902-16.234358 16.364406-0.657466 8.243615 3.590777 13.43832 10.974628 15.656366a110.743318 110.743318 0 0 0 20.395902 4.074845c7.485 0.76584 15.598566-6.119493 17.57819-13.83569 1.676178-6.545762-2.124122-14.962775-9.471848-17.491491zM538.262524 292.572461c-7.029831 3.37403-13.48167 8.229165-19.586713 13.163774-5.859397 4.739537-7.49945 11.870516-3.431829 18.004459 3.215082 4.84791 8.97333 8.005193 11.94999 10.519459 13.79234-0.939237 20.735473-8.20749 27.989275-14.60153 5.787148-5.100782 6.401264-14.890526 2.087997-21.573561-3.879773-6.032794-11.653769-9.045579-19.00872-5.512601zM810.691954 632.778709c7.434426 3.7136 16.761776-0.274546 20.663223-6.957582 2.738238-4.688962 5.418678-9.544097 7.138205-14.659329 3.171733-9.464623 3.063359-14.60153-5.165806-21.450738-5.180256-4.313267-15.779189-5.404228-19.731211-0.296221-6.459064 8.337538-11.140801 18.055033-17.505941 28.76234 5.58485 5.801597 9.233426 11.921091 14.60153 14.60153zM863.3037 457.430305c-0.534643-5.158581-0.809189-10.360511-1.676178-15.461293-1.293258-7.636723-7.766771-13.86459-15.186746-14.630429-7.831795-0.809189-15.136172 2.738238-16.747326 9.652471-1.90015 8.142466-1.307708 17.397567 0.390144 25.720655 2.261395 11.119126 8.771033 15.35292 17.59264 14.283634 10.353286-1.257133 16.097085-10.396636 15.627466-19.565038zM444.830074 642.944148c-11.798267 1.726752-16.277707 16.971298-8.756583 26.255299 6.220642 7.680072 14.60153 6.813084 22.917393 6.740835 1.84235 0 3.684701 0.007225 5.527051 0 10.454435-0.0289 15.959811-4.515565 17.151921-13.965738 1.10541-8.771033-3.482403-16.552254-12.571332-18.213982-7.904044-1.444981-16.357181-1.972399-24.26845-0.816414zM406.595885 379.972116c-6.805859 0.563542-13.676742 2.376993-20.106906 4.753987-7.680072 2.839387-12.73028 12.058364-10.721756 18.748624 1.921824 6.372365 6.235092 13.972963 17.838286 13.510569 6.278441-1.372732 12.723055-2.22527 18.784749-4.241018 9.493523-3.150058 14.160811-11.942765 12.267886-21.515762-1.408856-7.094855-8.366438-12.058364-18.062259-11.2564zM853.037112 510.778991c-6.950357-3.959247-12.571332-2.832162-18.589676 1.372732-6.863658 4.797336-11.097452 22.910168-7.817345 33.314029 2.456467 7.795671 6.957582 12.426834 15.641915 11.697119 9.377925-0.021675 13.691192-2.882736 16.198234-11.99334 1.625603-5.902746 3.041684-12.108938 2.998334-18.163407-0.050574-6.357915-1.705077-12.397934-8.431462-16.227133zM619.889482 266.10764c-3.265656-0.693591-6.798634-0.108374-10.216014-0.108374v-0.231197c-2.629865 0-5.310304-0.332346-7.882369 0.0578-8.807157 1.351057-16.935173 6.986482-15.72139 18.950921 0.903113 8.872181 6.552987 13.965738 16.927949 14.305309 2.796038 0.093924 5.577625 0.874213 8.351988 1.408856 10.512234 2.044648 21.718059-4.472215 23.769932-13.85014 2.131346-9.69582-3.930347-18.134507-15.230096-20.533175zM353.485621 675.463438c1.47388 7.622273 7.232128 11.59597 20.504275 11.516496 4.327717-1.444981 12.390709-3.366805 19.731211-6.834759 5.801597-2.738238 7.932944-8.539836 7.268253-15.230096-0.621342-6.278441-2.391443-11.24195-8.807157-14.146361-10.765106-4.87681-19.608388 1.199334-28.733441 4.602264-9.32735 3.467954-11.94999 9.804194-9.963141 20.092456zM700.309881 685.050885c-5.657099 0.671916-11.415347 0.874213-16.942399 2.124121-6.849208 1.538904-14.861626 7.831795-13.315497 18.791974 1.286033 9.153953 6.661361 14.413682 16.097085 14.225835 5.411453-0.108374 10.837355-0.809189 16.212683-1.54613 11.133576-1.538904 17.679338-8.814382 16.84125-18.452403-0.845314-9.73917-7.311602-14.818277-18.893122-15.143397zM231.493128 283.353484c1.437756-8.200265-6.285666-17.693788-16.8268-17.216945-10.071515 0.462394-15.858663 5.6282-16.299382 16.920724-0.404595 10.331612 7.354952 17.397567 16.790675 17.484266 9.125053 0.079474 16.306607-7.781221 16.335507-17.188045z" p-id="1068" fill="#2c2c2c"></path></svg>